<svg width="31" height="30" viewBox="0 0 31 30" fill="none" xmlns="http://www.w3.org/2000/svg">
<path fill-rule="evenodd" clip-rule="evenodd" d="M9.26437 0.42052C10.8772 0.34852 11.3915 0.33252 15.5 0.33252C19.6085 0.33252 20.1227 0.349853 21.7342 0.42052C23.3457 0.491186 24.4457 0.74052 25.4082 1.10185C26.4161 1.47119 27.3305 2.04852 28.0867 2.79519C28.8567 3.52719 29.4507 4.41252 29.8302 5.39119C30.2042 6.32452 30.46 7.39119 30.5342 8.95119C30.6085 10.5179 30.625 11.0165 30.625 14.9992C30.625 18.9832 30.6071 19.4819 30.5342 21.0459C30.4614 22.6059 30.2042 23.6725 29.8302 24.6059C29.4507 25.5846 28.8558 26.4715 28.0867 27.2045C27.3305 27.9512 26.4161 28.5272 25.4082 28.8952C24.4457 29.2579 23.3457 29.5059 21.737 29.5779C20.1227 29.6499 19.6085 29.6659 15.5 29.6659C11.3915 29.6659 10.8772 29.6485 9.26437 29.5779C7.65562 29.5072 6.55562 29.2579 5.59312 28.8952C4.58377 28.5271 3.66925 27.9502 2.91325 27.2045C2.14377 26.4721 1.54831 25.5857 1.16837 24.6072C0.79575 23.6739 0.54 22.6072 0.46575 21.0472C0.3915 19.4805 0.375 18.9819 0.375 14.9992C0.375 11.0152 0.392875 10.5165 0.46575 8.95385C0.538625 7.39119 0.79575 6.32452 1.16837 5.39119C1.54887 4.41263 2.14479 3.52627 2.91462 2.79385C3.66956 2.04785 4.58315 1.47044 5.59175 1.10185C6.55425 0.74052 7.65425 0.49252 9.263 0.42052H9.26437ZM21.6119 3.06052C20.0169 2.98985 19.5384 2.97519 15.5 2.97519C11.4616 2.97519 10.9831 2.98985 9.38812 3.06052C7.91275 3.12585 7.1125 3.36452 6.579 3.56585C5.87362 3.83252 5.369 4.14852 4.83962 4.66185C4.33781 5.13526 3.95162 5.71156 3.70937 6.34852C3.50175 6.86585 3.25562 7.64185 3.18825 9.07252C3.11537 10.6192 3.10025 11.0832 3.10025 14.9992C3.10025 18.9152 3.11537 19.3792 3.18825 20.9259C3.25562 22.3565 3.50175 23.1325 3.70937 23.6499C3.95137 24.2859 4.33775 24.8632 4.83962 25.3365C5.32775 25.8232 5.92312 26.1979 6.579 26.4325C7.1125 26.6339 7.91275 26.8725 9.38812 26.9379C10.9831 27.0085 11.4602 27.0232 15.5 27.0232C19.5397 27.0232 20.0169 27.0085 21.6119 26.9379C23.0872 26.8725 23.8875 26.6339 24.421 26.4325C25.1264 26.1659 25.631 25.8499 26.1604 25.3365C26.6622 24.8632 27.0486 24.2859 27.2906 23.6499C27.4982 23.1325 27.7444 22.3565 27.8117 20.9259C27.8846 19.3792 27.8997 18.9152 27.8997 14.9992C27.8997 11.0832 27.8846 10.6192 27.8117 9.07252C27.7444 7.64185 27.4982 6.86585 27.2906 6.34852C27.0156 5.66452 26.6897 5.17519 26.1604 4.66185C25.6721 4.17528 25.0778 3.8008 24.421 3.56585C23.8875 3.36452 23.0872 3.12585 21.6119 3.06052ZM13.5681 19.5205C14.647 19.956 15.8484 20.0148 16.967 19.6868C18.0857 19.3588 19.0522 18.6644 19.7015 17.7222C20.3508 16.7799 20.6426 15.6483 20.5271 14.5207C20.4116 13.393 19.8959 12.3392 19.0681 11.5392C18.5404 11.0278 17.9024 10.6363 17.2 10.3927C16.4975 10.1492 15.7481 10.0597 15.0057 10.1307C14.2633 10.2017 13.5463 10.4314 12.9065 10.8034C12.2666 11.1753 11.7198 11.6802 11.3053 12.2817C10.8908 12.8831 10.619 13.5662 10.5095 14.2818C10.3999 14.9974 10.4553 15.7276 10.6717 16.4199C10.8882 17.1122 11.2602 17.7493 11.761 18.2855C12.2618 18.8216 12.879 19.2434 13.5681 19.5205ZM10.0027 9.66852C10.7247 8.96849 11.5817 8.41319 12.5249 8.03434C13.4681 7.65548 14.4791 7.46049 15.5 7.46049C16.5209 7.46049 17.5319 7.65548 18.4751 8.03434C19.4183 8.41319 20.2753 8.96849 20.9972 9.66852C21.7192 10.3686 22.2918 11.1996 22.6825 12.1143C23.0732 13.0289 23.2743 14.0092 23.2743 14.9992C23.2743 15.9892 23.0732 16.9695 22.6825 17.8841C22.2918 18.7988 21.7192 19.6298 20.9972 20.3299C19.5393 21.7436 17.5619 22.5379 15.5 22.5379C13.4381 22.5379 11.4607 21.7436 10.0027 20.3299C8.54479 18.9161 7.72571 16.9986 7.72571 14.9992C7.72571 12.9998 8.54479 11.0823 10.0027 9.66852ZM24.9985 8.58319C25.1774 8.41955 25.3206 8.22276 25.4197 8.00449C25.5187 7.78621 25.5716 7.55088 25.5752 7.31243C25.5788 7.07398 25.533 6.83725 25.4405 6.61627C25.3481 6.39528 25.2108 6.19453 25.0369 6.02591C24.863 5.85728 24.656 5.7242 24.4281 5.63454C24.2002 5.54489 23.9561 5.50049 23.7102 5.50396C23.4643 5.50744 23.2216 5.55873 22.9965 5.65478C22.7714 5.75084 22.5685 5.88971 22.3997 6.06319C22.0716 6.40056 21.8919 6.84868 21.8988 7.31243C21.9058 7.77617 22.0989 8.21903 22.4371 8.54698C22.7753 8.87493 23.232 9.06216 23.7102 9.06892C24.1885 9.07568 24.6506 8.90144 24.9985 8.58319Z" fill="white"/>
</svg>
