<svg width="37" height="37" viewBox="0 0 37 37" fill="none" xmlns="http://www.w3.org/2000/svg">
<path d="M18.5006 12.3815C15.1316 12.3815 12.3823 15.1309 12.3823 18.4998C12.3823 21.8687 15.1316 24.6181 18.5006 24.6181C21.8695 24.6181 24.6188 21.8687 24.6188 18.4998C24.6188 15.1309 21.8695 12.3815 18.5006 12.3815ZM36.8508 18.4998C36.8508 15.9662 36.8737 13.4556 36.7314 10.9266C36.5892 7.98906 35.919 5.38203 33.771 3.23398C31.6184 1.08135 29.0159 0.415818 26.0784 0.273533C23.5448 0.131248 21.0342 0.154197 18.5052 0.154197C15.9716 0.154197 13.4609 0.131248 10.9319 0.273533C7.99443 0.415818 5.3874 1.08594 3.23935 3.23398C1.08672 5.38662 0.421189 7.98906 0.278904 10.9266C0.136619 13.4602 0.159568 15.9708 0.159568 18.4998C0.159568 21.0288 0.136619 23.544 0.278904 26.073C0.421189 29.0105 1.09131 31.6176 3.23935 33.7656C5.39199 35.9183 7.99443 36.5838 10.9319 36.7261C13.4655 36.8684 15.9762 36.8454 18.5052 36.8454C21.0388 36.8454 23.5494 36.8684 26.0784 36.7261C29.0159 36.5838 31.623 35.9137 33.771 33.7656C35.9236 31.613 36.5892 29.0105 36.7314 26.073C36.8783 23.544 36.8508 21.0334 36.8508 18.4998ZM18.5006 27.9136C13.2911 27.9136 9.08681 23.7093 9.08681 18.4998C9.08681 13.2903 13.2911 9.08603 18.5006 9.08603C23.7101 9.08603 27.9144 13.2903 27.9144 18.4998C27.9144 23.7093 23.7101 27.9136 18.5006 27.9136ZM28.2999 10.899C27.0836 10.899 26.1014 9.91679 26.1014 8.70049C26.1014 7.48418 27.0836 6.50195 28.2999 6.50195C29.5162 6.50195 30.4984 7.48418 30.4984 8.70049C30.4988 8.9893 30.4422 9.27536 30.3318 9.54226C30.2215 9.80916 30.0595 10.0517 29.8553 10.2559C29.6511 10.4601 29.4086 10.622 29.1417 10.7324C28.8748 10.8428 28.5887 10.8994 28.2999 10.899Z" fill="url(#paint0_linear)"/>
<defs>
<linearGradient id="paint0_linear" x1="0.158203" y1="0.152832" x2="39.3531" y2="3.05268" gradientUnits="userSpaceOnUse">
<stop stop-color="#C51E05"/>
<stop offset="1" stop-color="#E5691D"/>
</linearGradient>
</defs>
</svg>
