<svg width="16" height="18" viewBox="0 0 16 18" fill="none" xmlns="http://www.w3.org/2000/svg">
<path d="M8 0.791504C9.98912 0.791504 11.8968 1.54217 13.3033 2.87837C14.7098 4.21457 15.5 6.02684 15.5 7.9165C15.5 10.8663 13.1333 13.9569 8.5 17.2582C8.35575 17.3609 8.18031 17.4165 8 17.4165C7.81969 17.4165 7.64425 17.3609 7.5 17.2582C2.86667 13.9569 0.5 10.8663 0.5 7.9165C0.5 6.02684 1.29018 4.21457 2.6967 2.87837C4.10322 1.54217 6.01088 0.791504 8 0.791504ZM8 5.5415C7.33696 5.5415 6.70107 5.79173 6.23223 6.23713C5.76339 6.68252 5.5 7.28662 5.5 7.9165C5.5 8.54639 5.76339 9.15049 6.23223 9.59588C6.70107 10.0413 7.33696 10.2915 8 10.2915C8.66304 10.2915 9.29893 10.0413 9.76777 9.59588C10.2366 9.15049 10.5 8.54639 10.5 7.9165C10.5 7.28662 10.2366 6.68252 9.76777 6.23713C9.29893 5.79173 8.66304 5.5415 8 5.5415Z" fill="url(#paint0_linear)"/>
<defs>
<linearGradient id="paint0_linear" x1="0.5" y1="0.791504" x2="16.5383" y2="1.8621" gradientUnits="userSpaceOnUse">
<stop stop-color="#C51E05"/>
<stop offset="1" stop-color="#E5691D"/>
</linearGradient>
</defs>
</svg>
