<svg xmlns="http://www.w3.org/2000/svg" width="100" height="14.264" viewBox="0 0 100 14.264"><defs><style>.a{fill:#fff;opacity:0.5;}</style></defs><path class="a" d="M14.82-15.285l-3.3-5.865H9.36v10.334h2.355v-5.94l3.39,5.94h2.07V-21.15H14.82Zm5.46-3.585a1.323,1.323,0,0,0,1.35-1.29,1.3,1.3,0,0,0-1.35-1.29,1.33,1.33,0,0,0-1.38,1.29A1.35,1.35,0,0,0,20.279-18.87Zm1.11,8.055v-7h-2.22v7ZM27.479-18a2.131,2.131,0,0,0-2.01,1.44v-1.26h-2.22v7h2.22V-14.46a1.3,1.3,0,0,1,1.35-1.485c.555,0,1.215.42,1.215,1.5v3.63h2.22V-14.58C30.254-16.725,29.339-18,27.479-18Zm5.775-.87a1.327,1.327,0,0,0,1.365-1.29,1.308,1.308,0,0,0-1.365-1.29,1.326,1.326,0,0,0-1.365,1.29A1.346,1.346,0,0,0,33.254-18.87Zm-2.115,11.5c2.025,0,3.225-1.17,3.225-3.375v-7.08h-2.22v7.155c0,.795-.39,1.3-1.035,1.3h-.885v1.995ZM41.4-16.98A2.757,2.757,0,0,0,39.208-18a3.367,3.367,0,0,0-3.375,3.69,3.357,3.357,0,0,0,3.345,3.675A2.767,2.767,0,0,0,41.4-11.7v.885h2.22v-7H41.4Zm-1.68,4.29a1.6,1.6,0,0,1-1.62-1.62,1.586,1.586,0,0,1,1.6-1.635,1.617,1.617,0,0,1,1.62,1.635A1.629,1.629,0,0,1,39.718-12.69Zm8.37,1.875V-21.15H45.733v10.334ZM54.313-18a2.131,2.131,0,0,0-2.01,1.44v-1.26h-2.22v7H52.3V-14.46a1.3,1.3,0,0,1,1.35-1.485c.555,0,1.215.42,1.215,1.5v3.63h2.22V-14.58C57.088-16.725,56.173-18,54.313-18Zm12.359-3.63h-3.93c-2.025,0-3.24,1.17-3.24,3.375v.435H58.2v1.68h1.3v5.325h2.22V-16.14h1.5v-1.68h-1.5V-18.2c.015-.81.39-1.38,1.485-1.38h1.245v8.76h2.22Zm6.555,7.455a1.307,1.307,0,0,1-1.35,1.485c-.57,0-1.215-.4-1.215-1.485V-17.82h-2.22v3.78c0,2.145.915,3.4,2.775,3.4a2.1,2.1,0,0,0,2.01-1.38v1.2h2.22v-7h-2.22Zm11.144-.285A3.525,3.525,0,0,0,80.681-18a3.632,3.632,0,0,0-3.765,3.7,3.577,3.577,0,0,0,3.78,3.66,4.291,4.291,0,0,0,3.06-1.215l-1.14-1.44a2.656,2.656,0,0,1-1.77.72,1.584,1.584,0,0,1-1.635-1.095h5.13C84.356-14.01,84.371-14.265,84.371-14.46ZM79.2-14.97a1.485,1.485,0,0,1,1.53-1.155,1.3,1.3,0,0,1,1.44,1.155ZM90.011-18A2.131,2.131,0,0,0,88-16.56v-1.26h-2.22v7H88V-14.46a1.3,1.3,0,0,1,1.35-1.485c.555,0,1.215.42,1.215,1.5v3.63h2.22V-14.58C92.786-16.725,91.871-18,90.011-18Zm7.995,7.365a3.6,3.6,0,0,0,3.06-1.65l-1.725-1.08a1.648,1.648,0,0,1-1.32.675,1.574,1.574,0,0,1-1.62-1.65,1.547,1.547,0,0,1,1.62-1.6,1.648,1.648,0,0,1,1.32.675l1.725-1.08A3.6,3.6,0,0,0,98.005-18a3.7,3.7,0,0,0-3.87,3.66A3.739,3.739,0,0,0,98.005-10.636ZM109.36-14.46A3.525,3.525,0,0,0,105.67-18a3.632,3.632,0,0,0-3.765,3.7,3.577,3.577,0,0,0,3.78,3.66,4.291,4.291,0,0,0,3.06-1.215l-1.14-1.44a2.656,2.656,0,0,1-1.77.72,1.583,1.583,0,0,1-1.635-1.095h5.13C109.345-14.01,109.36-14.265,109.36-14.46Zm-5.175-.51a1.485,1.485,0,0,1,1.53-1.155,1.3,1.3,0,0,1,1.44,1.155Z" transform="translate(-9.36 21.63)"/></svg>