<svg width="181" height="29" viewBox="0 0 181 29" fill="none" xmlns="http://www.w3.org/2000/svg">
<g opacity="0.5" clip-path="url(#clip0)">
<path d="M0 21.2721V1.01221H5.04742L12.952 12.6465C12.8654 11.6909 12.8372 10.4193 12.8372 9.28948V1.01221H18.1727V21.2721H13.1354L5.22071 9.66609C5.30735 10.6218 5.33757 11.8933 5.33757 12.9948V21.2721H0Z" fill="white"/>
<path d="M22.164 5.41222C20.6931 5.41222 19.3672 4.60231 19.3672 2.69092C19.3592 0.809909 20.685 0 22.164 0C23.6651 0 24.9627 0.809909 24.9627 2.69092C24.9547 4.60231 23.657 5.41222 22.164 5.41222ZM19.7037 21.2723V7.3803H24.6081V21.2723H19.7037Z" fill="white"/>
<path d="M35.1187 6.94482C38.925 6.94482 40.6558 9.52034 40.6558 12.6466V21.2721H35.7534V13.3127C35.7534 11.8367 34.8588 11.1361 33.6498 11.1361C33.1906 11.1497 32.7401 11.2658 32.331 11.4759C31.9218 11.686 31.5643 11.9849 31.2843 12.351V21.26H26.3779V7.38015H30.706V8.97162C31.8586 7.72639 33.273 6.94482 35.1187 6.94482Z" fill="white"/>
<path d="M41.9897 28.0735C40.9218 28.0735 39.9989 27.9277 39.334 27.6381V23.5299C39.7891 23.6808 40.2651 23.7587 40.7444 23.7607C41.6673 23.7607 42.4168 23.21 42.4168 21.9951V7.3803H47.3212V22.9224C47.3252 26.7128 44.8428 28.0735 41.9897 28.0735ZM44.8731 5.41222C43.4021 5.41222 42.0743 4.60231 42.0743 2.69092C42.0743 0.809909 43.4021 0 44.8731 0C46.344 0 47.6718 0.809909 47.6718 2.69092C47.6718 4.60231 46.3722 5.41222 44.8731 5.41222Z" fill="white"/>
<path d="M73.3563 0.579102C80.5678 0.579102 84.1745 5.4993 84.1745 11.1423C84.1745 16.7854 80.5678 21.7056 73.3563 21.7056C66.1448 21.7056 62.5381 16.7854 62.5381 11.1363C62.5381 5.48715 66.1448 0.579102 73.3563 0.579102ZM73.3563 5.4993C69.8664 5.4993 68.0207 7.89663 68.0207 11.1363C68.0207 14.3759 69.8664 16.7793 73.3563 16.7793C76.8462 16.7793 78.6939 14.3759 78.6939 11.1363C78.6939 7.89663 76.8462 5.49322 73.3563 5.49322V5.4993Z" fill="white"/>
<path d="M99.6089 7.38037V21.2723H95.2828V19.6788C94.1302 20.9241 92.7158 21.7036 90.8701 21.7036C87.0618 21.7036 85.333 19.1281 85.333 16.0019V7.38037H90.2374V15.3398C90.2374 16.8158 91.13 17.5103 92.343 17.5103C92.8018 17.496 93.2518 17.3796 93.6605 17.1695C94.0692 16.9594 94.4264 16.6609 94.7065 16.2954V7.38645L99.6089 7.38037Z" fill="white"/>
<path d="M107.732 2.31445V7.37638H111.484V11.4259H107.732V15.9412C107.732 17.0406 108.309 17.6481 109.546 17.6481C110.299 17.6658 111.05 17.5485 111.762 17.3018V21.1226C110.553 21.5219 109.286 21.7176 108.012 21.7016C105.331 21.7016 102.82 20.6002 102.82 16.9252V11.432H100.636V7.38246H102.828V3.47262L107.732 2.31445Z" fill="white"/>
<path d="M122.95 7.08688V11.8653C121.015 11.432 118.968 12.0395 118.102 13.3718V21.2684H113.199V7.38047H117.525V9.26148C118.478 7.87249 120.237 6.80139 122.95 7.08688Z" fill="white"/>
<path d="M130.931 6.94482C136.873 6.94482 138.66 11.5755 137.681 15.8012H128.614C129.162 17.336 131.032 17.9434 133.027 17.9434C134.386 17.9691 135.738 17.7433 137.016 17.2772V20.9218C135.719 21.3855 134.074 21.7034 131.882 21.7034C127.324 21.7034 123.661 19.0995 123.661 14.3231C123.661 8.88456 127.901 6.94482 130.931 6.94482ZM131.046 10.5064C129.69 10.5064 128.565 11.4034 128.565 12.8491H133.21C133.353 12.1829 133.006 10.5064 131.046 10.5064Z" fill="white"/>
<path d="M160.824 6.9165C162.3 6.9164 163.758 7.24268 165.094 7.8722V12.0675C164.017 11.4618 162.808 11.1341 161.574 11.1139C159.641 11.1139 157.882 11.9521 157.882 14.3251C157.882 16.5261 159.613 17.5101 161.489 17.5101C162.797 17.5237 164.087 17.2047 165.239 16.5828V20.7801C163.729 21.4004 162.111 21.7148 160.48 21.7054C156.613 21.7054 152.835 19.5349 152.835 14.6187C152.835 9.14578 156.873 6.9165 160.824 6.9165Z" fill="white"/>
<path d="M171.624 1.01221V8.42085C172.667 7.45818 174.036 6.93046 175.452 6.94479C179.261 6.94479 180.992 9.5203 180.992 12.6465V21.2721H176.105V13.3127C176.105 11.8366 175.201 11.1361 173.99 11.1361C173.53 11.1497 173.08 11.2658 172.671 11.4759C172.262 11.686 171.904 11.9849 171.624 12.3509V21.2599H166.72V1.01221H171.624Z" fill="white"/>
<path d="M62.0214 18.1745C62.2069 18.1752 62.3913 18.1458 62.5675 18.0875V21.1246C61.6891 21.4181 60.7689 21.5659 59.8433 21.562C58.3139 21.562 57.6631 21.0133 57.0223 20.0292C55.6965 21.07 55.2734 21.7078 53.3128 21.7078C50.6592 21.7078 48.4951 20.1143 48.4951 17.4234C48.4951 13.9205 51.5417 12.8514 54.2256 12.8514C55.2633 12.8514 55.9726 12.9446 56.3876 13.1693V12.6773C56.3876 11.6933 55.8134 10.9421 53.8528 10.9421C52.6822 10.9421 51.1206 11.4179 49.7645 11.9666V7.87251C50.9171 7.4959 53.5929 7.18408 55.632 7.18408C60.0448 7.18408 60.8165 9.95195 60.8165 13.1896V17.069C60.8306 17.7352 61.5298 18.1745 62.0214 18.1745ZM54.1148 18.377C54.9339 18.4017 55.7371 18.1469 56.3937 17.6542V15.7732C55.8234 15.5993 55.2306 15.5119 54.6346 15.514C53.4801 15.514 52.4404 15.919 52.4404 17.0184C52.4404 17.7412 53.0751 18.377 54.1148 18.377Z" fill="white"/>
<path d="M152.049 18.1745C152.236 18.175 152.421 18.1456 152.598 18.0875V21.1246C151.721 21.4159 150.803 21.5622 149.879 21.5579C148.35 21.5579 147.699 21.0092 147.058 20.0252C145.733 21.0659 145.309 21.7037 143.349 21.7037C140.695 21.7037 138.531 20.1102 138.531 17.4193C138.531 13.9165 141.58 12.8474 144.262 12.8474C145.301 12.8474 146.009 12.9405 146.424 13.1653V12.6773C146.424 11.6933 145.849 10.9421 143.889 10.9421C142.718 10.9421 141.157 11.4179 139.801 11.9666V7.8725C140.955 7.4959 143.629 7.18408 145.67 7.18408C150.083 7.18408 150.855 9.95195 150.855 13.1896V17.069C150.861 17.7352 151.558 18.1745 152.049 18.1745ZM144.143 18.377C144.962 18.4017 145.765 18.1469 146.422 17.6542V15.7732C145.855 15.6002 145.265 15.5128 144.673 15.514C143.518 15.514 142.481 15.919 142.481 17.0184C142.481 17.7412 143.115 18.377 144.153 18.377H144.143Z" fill="white"/>
</g>
<defs>
<clipPath id="clip0">
<rect width="181" height="28.0735" fill="white"/>
</clipPath>
</defs>
</svg>
