<?xml version="1.0" standalone="no"?>
<!DOCTYPE svg PUBLIC "-//W3C//DTD SVG 20010904//EN"
 "http://www.w3.org/TR/2001/REC-SVG-20010904/DTD/svg10.dtd">
<svg version="1.0" xmlns="http://www.w3.org/2000/svg"
 width="534.000000pt" height="254.000000pt" viewBox="0 0 534.000000 254.000000"
 preserveAspectRatio="xMidYMid meet">
<metadata>
Created by potrace 1.16, written by Peter Selinger 2001-2019
</metadata>
<g transform="translate(0.000000,254.000000) scale(0.100000,-0.100000)"
fill="#000000" stroke="none">
<path d="M2222 2528 c-7 -7 -12 -31 -12 -54 l0 -42 -52 20 c-29 11 -92 30
-141 43 -101 27 -116 20 -74 -37 13 -18 35 -64 47 -102 13 -39 34 -81 47 -94
22 -22 24 -29 15 -63 -12 -47 -1 -59 51 -59 34 0 38 -2 27 -15 -7 -9 -26 -25
-41 -35 l-27 -20 -72 90 c-71 89 -73 91 -111 88 -51 -4 -55 -22 -7 -26 33 -3
45 -12 110 -93 39 -49 76 -89 81 -89 5 0 32 19 60 43 95 79 87 79 87 0 l0 -70
-50 -32 c-143 -93 -247 -287 -295 -551 -26 -142 -32 -519 -11 -676 53 -407
226 -651 516 -730 90 -25 319 -25 410 -1 227 60 385 219 460 462 80 261 91
706 25 999 -46 202 -118 341 -236 450 l-69 64 0 66 c0 36 3 66 6 66 3 0 30
-20 58 -45 29 -25 57 -45 63 -45 5 0 42 40 81 89 63 79 76 90 107 93 47 4 45
22 -3 26 -38 3 -41 1 -112 -87 -42 -52 -78 -88 -84 -84 -6 4 -35 27 -63 51
l-53 44 0 172 c0 120 -4 176 -12 184 -17 17 -709 17 -726 0z m587 -116 c-57
-54 -130 -122 -161 -151 l-58 -54 -42 36 c-24 20 -97 88 -163 151 l-120 115
324 1 324 0 -104 -98z m-426 -58 l96 -90 -119 -119 -120 -120 0 228 0 228 24
-18 c13 -10 67 -59 119 -109z m547 -101 l0 -228 -117 118 -118 118 115 109
c63 60 116 109 118 110 1 0 2 -102 2 -227z m-862 191 c87 -25 119 -43 132 -74
18 -43 9 -55 -36 -52 -28 2 -47 -3 -66 -17 -24 -19 -26 -19 -41 -3 -19 22 -66
162 -54 162 5 0 34 -7 65 -16z m452 -219 c7 -9 26 -25 42 -37 l30 -20 39 38
39 38 100 -99 c55 -54 98 -100 97 -101 -1 -1 -28 6 -59 17 -31 10 -88 22 -126
25 -59 6 -69 9 -65 24 6 21 -19 42 -41 34 -9 -3 -16 -17 -16 -30 0 -22 -4 -24
-52 -24 -29 0 -81 -6 -115 -14 -35 -7 -63 -10 -63 -7 0 8 163 171 171 171 4 0
12 -7 19 -15z m130 -593 c34 -26 67 -93 86 -177 21 -95 31 -541 15 -697 -17
-162 -36 -222 -86 -275 -37 -38 -47 -43 -87 -43 -83 0 -136 57 -164 179 -50
211 -37 788 20 926 43 103 141 142 216 87z"/>
<path d="M927 2023 c-18 -27 -202 -293 -407 -593 -205 -300 -376 -549 -381
-553 -4 -5 -19 -1 -33 8 -23 16 -26 16 -32 1 -3 -9 -1 -30 5 -47 6 -18 11 -68
11 -112 0 -44 5 -97 11 -118 10 -32 9 -42 -5 -63 -20 -31 -20 -50 -1 -66 8 -7
15 -23 15 -36 0 -21 5 -23 59 -26 l59 -3 -13 -32 -14 -33 -101 0 c-82 0 -100
-3 -100 -15 0 -12 17 -15 95 -15 94 0 95 0 95 -25 0 -31 2 -32 190 -95 85 -29
159 -57 165 -62 5 -4 -26 -8 -69 -8 -58 0 -77 -3 -74 -12 3 -9 47 -15 154 -18
100 -4 159 -11 179 -20 28 -14 23 -15 -88 -18 -88 -2 -117 -6 -114 -15 3 -9
113 -13 465 -15 l462 -2 0 195 0 195 115 0 115 0 0 205 0 204 -112 3 -113 3
-3 618 -2 617 -249 0 -249 0 -35 -47z m0 -775 c-4 -66 -7 -188 -7 -270 l0
-148 -166 0 c-142 0 -165 2 -160 15 3 8 61 97 128 197 68 101 139 216 158 255
19 40 39 73 44 73 5 0 6 -51 3 -122z m-637 -557 c6 -15 8 -40 5 -54 -7 -26 -8
-26 -36 -12 -33 18 -63 19 -91 4 -31 -16 -38 3 -38 104 l0 88 74 -51 c44 -30
79 -63 86 -79z m449 -25 l304 -103 -69 -32 c-38 -18 -80 -32 -94 -31 -100 8
-142 -9 -170 -67 -14 -31 -46 -53 -74 -53 -11 0 -216 367 -216 386 0 8 20 2
319 -100z m-280 -54 c39 -73 71 -137 71 -141 0 -10 -289 -156 -295 -149 -4 3
78 245 140 417 7 18 1 27 84 -127z m515 -306 c-38 -113 -71 -206 -74 -206 -3
0 -16 21 -28 46 -20 40 -21 50 -10 74 7 16 23 33 35 39 55 25 80 120 48 182
l-16 30 53 24 c29 13 54 22 56 20 2 -2 -27 -96 -64 -209z m-129 164 c-4 -6 7
-13 25 -16 75 -16 82 -125 10 -167 -48 -29 -75 -22 -95 23 -18 40 -41 46 -30
7 6 -21 5 -21 -14 2 -21 24 -29 57 -11 46 6 -4 10 9 10 33 0 51 31 79 88 81
13 1 20 -3 17 -9z m-263 -82 c24 -44 36 -48 85 -33 18 6 24 1 36 -27 8 -19 27
-44 43 -56 71 -54 70 -56 -37 -59 -59 -1 -89 -7 -114 -22 l-34 -20 -155 52
c-86 28 -156 54 -156 57 0 7 281 149 297 149 6 1 22 -18 35 -41z m261 -255
c15 -32 23 -59 18 -61 -10 -3 -243 77 -255 88 -14 14 52 28 135 29 l76 1 26
-57z"/>
<path d="M4018 1638 c-163 -238 -355 -518 -427 -623 l-131 -189 0 -203 0 -203
410 0 410 0 0 -195 0 -195 270 0 270 0 0 195 0 195 110 0 110 0 0 190 c0 174
1 190 18 190 9 0 57 -5 106 -10 71 -8 92 -8 102 2 8 8 25 122 44 297 24 230
28 287 18 297 -7 6 -105 21 -223 33 -115 12 -227 24 -247 27 l-38 6 0 309 0
309 -253 0 -253 0 -296 -432z m1062 -249 c107 -11 196 -22 198 -24 5 -5 -365
-285 -376 -285 -5 0 -26 20 -46 44 l-36 44 0 127 0 126 33 -6 c17 -3 120 -14
227 -26z m-798 -281 c-2 -145 -7 -266 -11 -271 -4 -4 -80 -6 -169 -5 l-162 3
126 189 c69 105 143 225 165 268 22 43 43 78 47 78 4 0 5 -118 4 -262z m993
-24 c-14 -125 -27 -229 -29 -231 -4 -5 -216 259 -216 269 0 11 265 208 268
199 2 -5 -8 -112 -23 -237z m-376 -44 c7 0 30 14 51 30 21 17 40 30 43 30 7 0
230 -280 226 -283 -3 -3 -386 39 -396 42 -2 1 -3 58 -3 129 l1 127 32 -38 c18
-20 38 -37 46 -37z"/>
</g>
</svg>
