<svg width="31" height="35" viewBox="0 0 31 35" fill="none" xmlns="http://www.w3.org/2000/svg">
<path d="M16.266 0.0291667C18.1764 0 20.0722 0.0145833 21.968 0C22.0847 2.23125 22.8868 4.50625 24.5201 6.08125C26.1535 7.7 28.4576 8.44375 30.7035 8.69167V14.5687C28.6035 14.4958 26.4889 14.0583 24.5785 13.1542C23.7472 12.775 22.9743 12.2937 22.216 11.7979C22.2014 16.0562 22.2305 20.3146 22.1868 24.5583C22.0701 26.6 21.3993 28.6271 20.218 30.3042C18.3076 33.1042 14.9972 34.9271 11.5993 34.9854C9.51388 35.1021 7.42846 34.5333 5.6493 33.4833C2.70346 31.7479 0.63263 28.5687 0.32638 25.1562C0.297213 24.4271 0.28263 23.6979 0.311797 22.9833C0.574297 20.2125 1.94513 17.5583 4.0743 15.75C6.49513 13.65 9.87846 12.6437 13.043 13.2417C13.0722 15.4 12.9847 17.5583 12.9847 19.7167C11.541 19.25 9.8493 19.3812 8.58055 20.2562C7.6618 20.8542 6.9618 21.7729 6.59721 22.8083C6.29096 23.5521 6.37846 24.3687 6.39305 25.1562C6.74305 27.5479 9.04721 29.5604 11.4972 29.3417C13.1305 29.3271 14.691 28.3792 15.5368 26.9937C15.8139 26.5125 16.1201 26.0167 16.1347 25.4479C16.2805 22.8375 16.2222 20.2417 16.2368 17.6312C16.2514 11.7542 16.2222 5.89167 16.266 0.0291667Z" fill="url(#paint0_linear)"/>
<defs>
<linearGradient id="paint0_linear" x1="-6.26309" y1="2.40524" x2="34.0187" y2="1.10052" gradientUnits="userSpaceOnUse">
<stop stop-color="#FFD814"/>
<stop offset="1" stop-color="#C51E05"/>
</linearGradient>
</defs>
</svg>
