<svg width="42" height="34" viewBox="0 0 42 34" fill="none" xmlns="http://www.w3.org/2000/svg">
<path d="M41.3603 4.84525C39.8642 5.50817 38.2571 5.95608 36.5676 6.15854C38.3109 5.11542 39.6151 3.47367 40.2369 1.53963C38.5991 2.51248 36.8065 3.19727 34.9372 3.56421C33.6801 2.22201 32.0151 1.33238 30.2006 1.03343C28.3861 0.73449 26.5237 1.04296 24.9025 1.91095C23.2813 2.77895 21.992 4.1579 21.2348 5.83372C20.4776 7.50954 20.2948 9.38847 20.7149 11.1788C17.3962 11.0122 14.1496 10.1496 11.1858 8.647C8.22202 7.14443 5.6073 5.03546 3.51134 2.45696C2.79467 3.69321 2.38259 5.12654 2.38259 6.65304C2.38179 8.02724 2.72019 9.38039 3.36778 10.5924C4.01538 11.8045 4.95212 12.8379 6.09492 13.6011C4.76958 13.559 3.47348 13.2008 2.3145 12.5566V12.6641C2.31437 14.5915 2.98106 16.4595 4.20146 17.9513C5.42185 19.4431 7.12078 20.4667 9.00996 20.8484C7.78049 21.1812 6.49148 21.2302 5.24029 20.9918C5.77331 22.6501 6.81158 24.1003 8.20974 25.1393C9.60791 26.1783 11.296 26.7541 13.0376 26.786C10.0811 29.1069 6.42976 30.3659 2.67104 30.3604C2.00523 30.3606 1.33997 30.3217 0.678711 30.2439C4.49402 32.697 8.93532 33.9989 13.4712 33.9939C28.8258 33.9939 37.2197 21.2766 37.2197 10.2471C37.2197 9.88879 37.2108 9.52687 37.1947 9.16854C38.8274 7.98779 40.2368 6.52565 41.3567 4.85063L41.3603 4.84525Z" fill="url(#paint0_linear)"/>
<defs>
<linearGradient id="paint0_linear" x1="0.678711" y1="0.922363" x2="44.0112" y2="4.86598" gradientUnits="userSpaceOnUse">
<stop stop-color="#C51E05"/>
<stop offset="1" stop-color="#E5691D"/>
</linearGradient>
</defs>
</svg>
