<svg width="39" height="27" viewBox="0 0 39 27" fill="none" xmlns="http://www.w3.org/2000/svg">
<path d="M37.4868 4.50564C37.2732 3.71327 36.8558 2.99065 36.2762 2.4097C35.6966 1.82876 34.9749 1.40975 34.183 1.19439C31.2468 0.388139 19.4999 0.375014 19.4999 0.375014C19.4999 0.375014 7.75489 0.361889 4.81676 1.13251C4.02537 1.35779 3.30518 1.78272 2.72532 2.36652C2.14547 2.95031 1.72542 3.67337 1.50551 4.46626C0.731136 7.40251 0.723636 13.4925 0.723636 13.4925C0.723636 13.4925 0.716136 19.6125 1.48489 22.5188C1.91614 24.1256 3.18176 25.395 4.79051 25.8281C7.75676 26.6344 19.4718 26.6475 19.4718 26.6475C19.4718 26.6475 31.2186 26.6606 34.1549 25.8919C34.9471 25.6769 35.6694 25.2589 36.2505 24.6791C36.8316 24.0993 37.2512 23.378 37.468 22.5863C38.2443 19.6519 38.2499 13.5638 38.2499 13.5638C38.2499 13.5638 38.2874 7.44189 37.4868 4.50564ZM15.7424 19.1344L15.7518 7.88439L25.5149 13.5188L15.7424 19.1344Z" fill="url(#paint0_linear)"/>
<defs>
<linearGradient id="paint0_linear" x1="0.723633" y1="0.375" x2="40.5814" y2="4.58699" gradientUnits="userSpaceOnUse">
<stop stop-color="#C51E05"/>
<stop offset="1" stop-color="#E5691D"/>
</linearGradient>
</defs>
</svg>
